# xmcd CD database file
#
# Track frame offsets:
#	150
#	22489
#	40899
#	59802
#	76033
#	102375
#	119844
#	139710
#	155569
#	172326
#	191795
#	210011
#	227767
#
# Disc length: 3252 seconds
#
# Revision: 0
# Processed by: cddbd v1.5.2PL0 Copyright (c) Steve Scherf et al.
# Submitted via: CDex 1.70beta2
#
DISCID=c00cb20d
DTITLE=Tom Keller - [Piano Lounge]
DYEAR=2003
DGENRE=Jazz
TTITLE0=Easy
TTITLE1=A part of you
TTITLE2=Secret of life
TTITLE3=I need God
TTITLE4=New York State of mind
TTITLE5=Tell me when
TTITLE6=Have a little faith in me
TTITLE7=Short people
TTITLE8=I say yes
TTITLE9=Honesty
TTITLE10=Oh Lord
TTITLE11=More than one way home
TTITLE12=Don't let me be lonely tonight
EXTD=YEAR: 2003
EXTT0=
EXTT1=
EXTT2=
EXTT3=
EXTT4=
EXTT5=
EXTT6=
EXTT7=
EXTT8=
EXTT9=
EXTT10=
EXTT11=
EXTT12=
PLAYORDER=
